<?xml version="1.0" standalone="no"?>
<!DOCTYPE svg PUBLIC "-//W3C//DTD SVG 20010904//EN"
 "http://www.w3.org/TR/2001/REC-SVG-20010904/DTD/svg10.dtd">
<svg version="1.0" xmlns="http://www.w3.org/2000/svg"
 width="173.000000pt" height="173.000000pt" viewBox="0 0 173.000000 173.000000"
 preserveAspectRatio="xMidYMid meet">
<metadata>
Created by potrace 1.14, written by Peter Selinger 2001-2017
</metadata>
<g transform="translate(0.000000,173.000000) scale(0.100000,-0.100000)"
fill="#000000" stroke="none">
<path d="M745 1723 c-81 -17 -162 -37 -175 -44 -8 -5 -36 -17 -62 -28 -132
-55 -280 -183 -367 -315 -44 -67 -96 -180 -107 -231 -28 -124 -33 -171 -29
-270 4 -118 6 -128 31 -214 64 -221 233 -424 439 -528 48 -25 176 -69 225 -78
59 -11 252 -14 300 -5 77 16 86 18 136 35 282 93 495 325 569 619 19 76 22
112 20 221 -2 75 -10 152 -18 182 -92 324 -308 545 -620 634 -69 19 -288 34
-342 22z"/>
</g>
</svg>
